<svg xmlns="http://www.w3.org/2000/svg" width="64.513" height="54.794" viewBox="0 0 64.513 54.794">
    <defs>
        <style>
            .cls-1,.cls-2{fill:#1a1818}.cls-1{stroke:#707070}.cls-3,.cls-5{stroke:none}.cls-4{fill:none}.cls-5{fill:#1a1818}
        </style>
    </defs>
    <g id="logo" transform="translate(-54.491 -83.623)">
        <g id="Group_228" data-name="Group 228" transform="translate(75.276 83.623)">
            <g id="Rectangle_32" class="cls-1" data-name="Rectangle 32">
                <path d="M0 0h22.346v5.587H0z" class="cls-3" transform="translate(1.363)"/>
                <path d="M.5.5h21.346v4.587H.5z" class="cls-4" transform="translate(1.363)"/>
            </g>
            <g id="Path_136" class="cls-2" data-name="Path 136">
                <path d="M119.112 129.999a11.958 11.958 0 0 1-8.51-3.525 11.956 11.956 0 0 1-3.526-8.51c0-3.215 1.252-6.237 3.525-8.51a11.957 11.957 0 0 1 8.51-3.526c3.216 0 6.238 1.252 8.511 3.525a11.957 11.957 0 0 1 3.525 8.51c0 3.216-1.252 6.238-3.525 8.511a11.957 11.957 0 0 1-8.51 3.525zm0-19.524c-4.13 0-7.489 3.36-7.489 7.488 0 4.13 3.36 7.49 7.489 7.49 4.13 0 7.489-3.36 7.489-7.49 0-4.129-3.36-7.488-7.49-7.488z" class="cls-3" transform="translate(-106.576 -96.727)"/>
                <path d="M119.112 106.428a11.46 11.46 0 0 0-8.157 3.379 11.46 11.46 0 0 0-3.379 8.157c0 3.081 1.2 5.978 3.379 8.156a11.46 11.46 0 0 0 8.157 3.379c3.081 0 5.978-1.2 8.157-3.378a11.46 11.46 0 0 0 3.378-8.157c0-3.082-1.2-5.978-3.378-8.157a11.46 11.46 0 0 0-8.157-3.379m0 19.525c-4.405 0-7.989-3.584-7.989-7.99 0-4.405 3.584-7.988 7.989-7.988 4.405 0 7.989 3.583 7.989 7.988 0 4.406-3.584 7.99-7.99 7.99m0-20.525c6.924 0 12.536 5.612 12.536 12.536 0 6.923-5.612 12.535-12.535 12.535s-12.536-5.612-12.536-12.535c0-6.924 5.613-12.536 12.536-12.536zm0 19.525a6.989 6.989 0 1 0 0-13.978 6.989 6.989 0 0 0 0 13.978z" class="cls-5" transform="translate(-106.576 -96.727)"/>
            </g>
        </g>
        <g id="Group_229" data-name="Group 229" transform="translate(54.491 126.955)">
            <g id="Path_137" class="cls-2" data-name="Path 137">
                <path d="M120.022 203.165h-.933l-2.01-4.416-.133-.293H114.537l.001.501.015 4.208h-.838v-10.159h3.377c.06.002 1.66.056 2.513 1.053.462.54.633 1.285.508 2.214a2.76 2.76 0 0 1-1.811 1.923l-.528.18.237.505 2.011 4.284zm-2.862-5.549h.009c.136 0 1.35-.029 1.974-1.049l.015-.023.012-.026c.241-.515.408-1.65-.676-2.272a3.01 3.01 0 0 0-1.367-.462l-.023-.002h-2.549v3.834h2.605z" class="cls-3" transform="translate(-89.78 -192.386)"/>
                <path d="M113.215 192.506h3.882s4.033.053 3.51 3.851c0 0-.32 1.688-2.143 2.312l2.346 4.996h-2.042l-2.144-4.71h-1.586l.017 4.71h-1.84v-11.159zm3.954 4.61c.078 0 1.062-.015 1.548-.81 0 0 .506-1.08-.49-1.637 0 0-.438-.32-1.147-.387h-2.025v2.834h2.114z" class="cls-5" transform="translate(-89.78 -192.386)"/>
            </g>
            <g id="Path_138" class="cls-2" data-name="Path 138">
                <path d="M60.04 203.286c-1.383 0-2.65-.496-3.568-1.398-.969-.952-1.481-2.263-1.481-3.793 0-3.058 2.077-5.193 5.05-5.193 1.181 0 2.294.403 3.184 1.143l-.597.597a4.229 4.229 0 0 0-2.587-.89c-1.243 0-2.3.43-3.055 1.245-.728.786-1.113 1.857-1.113 3.098 0 1.272.42 2.365 1.215 3.163.758.76 1.806 1.178 2.953 1.178a4.23 4.23 0 0 0 2.584-.888l.6.606a4.99 4.99 0 0 1-3.184 1.132z" class="cls-3" transform="translate(-54.491 -192.323)"/>
                <path d="M60.04 203.786c-3.05 0-5.549-2.214-5.549-5.691 0-3.337 2.308-5.693 5.55-5.693 1.533 0 2.909.617 3.905 1.629l-1.297 1.297a3.695 3.695 0 0 0-2.608-1.076c-2.277 0-3.668 1.613-3.668 3.843 0 2.37 1.628 3.841 3.668 3.841a3.694 3.694 0 0 0 2.608-1.075l1.297 1.312a5.499 5.499 0 0 1-3.905 1.613z" class="cls-5" transform="translate(-54.491 -192.323)"/>
            </g>
            <g id="Path_139" class="cls-2" data-name="Path 139">
                <path d="M88.785 203.326c-1.651 0-2.93-.738-3.6-2.08a4.99 4.99 0 0 1-.501-2.02V193.1h8.202v6.125c0 .042-.006 1.033-.501 2.022-.67 1.34-1.95 2.08-3.6 2.08zm-3.267-9.376V199.236c0 .036.023.887.454 1.695.54 1.025 1.487 1.545 2.813 1.545 1.342 0 2.29-.521 2.815-1.55a4.11 4.11 0 0 0 .452-1.717v-5.259h-6.534z" class="cls-3" transform="translate(-72.335 -192.442)"/>
                <path d="M84.184 192.6h9.202v6.625c0 .111-.016 1.17-.554 2.245-.759 1.518-2.198 2.356-4.047 2.356-1.85 0-3.289-.838-4.048-2.356a5.464 5.464 0 0 1-.553-2.245V192.6zm4.6 9.376c1.155 0 1.93-.411 2.372-1.28.38-.712.396-1.47.396-1.487v-4.759h-5.534v4.775s.016.759.395 1.47c.458.87 1.234 1.281 2.372 1.281z" class="cls-5" transform="translate(-72.335 -192.442)"/>
            </g>
            <g id="Path_140" class="cls-2" data-name="Path 140">
                <path d="M146.457 203.168h-1.105l-5.354-7.66-.91-1.302v8.962h-.849V193.1h1.106l5.368 7.661.91 1.298V193.1h.834v10.068z" class="cls-3" transform="translate(-104.518 -192.442)"/>
                <path d="M146.957 203.668h-1.866l-5.502-7.874v7.874h-1.85V192.6h1.866l5.518 7.874V192.6h1.834v11.068z" class="cls-5" transform="translate(-104.518 -192.442)"/>
            </g>
            <g id="Path_141" class="cls-2" data-name="Path 141">
                <path d="M170.437 202.93c-1.99 0-3.61-1.62-3.61-3.61 0-1.991 1.62-3.61 3.61-3.61a3.615 3.615 0 0 1 3.612 3.61c0 1.99-1.62 3.61-3.612 3.61zm0-6.387a2.76 2.76 0 0 0-1.966.81 2.76 2.76 0 0 0-.81 1.967c0 .745.288 1.443.81 1.966a2.76 2.76 0 0 0 1.966.81c.746 0 1.444-.288 1.967-.81a2.76 2.76 0 0 0 .81-1.966 2.76 2.76 0 0 0-.81-1.967 2.761 2.761 0 0 0-1.967-.81zm3.2-3.004h-6.304v-.834h6.304v.834z" class="cls-3" transform="translate(-121.697 -192.205)"/>
                <path d="M170.437 203.43c-2.26 0-4.11-1.85-4.11-4.11 0-2.261 1.85-4.11 4.11-4.11a4.123 4.123 0 0 1 4.112 4.11c0 2.26-1.85 4.11-4.112 4.11zm0-6.387a2.267 2.267 0 0 0-2.276 2.277 2.267 2.267 0 0 0 2.276 2.276 2.267 2.267 0 0 0 2.277-2.276 2.267 2.267 0 0 0-2.277-2.277zm3.7-3.004h-7.304v-1.834h7.304v1.834z" class="cls-5" transform="translate(-121.697 -192.205)"/>
            </g>
            <g id="Path_142" class="cls-2" data-name="Path 142">
                <path d="M201.771 203.168h-1.105l-5.354-7.66-.91-1.302v8.962h-.849V193.1h1.106l5.368 7.661.91 1.298V193.1h.834v10.068z" class="cls-3" transform="translate(-137.758 -192.442)"/>
                <path d="M202.271 203.668h-1.866l-5.502-7.874v7.874h-1.85V192.6h1.866l5.518 7.874V192.6h1.834v11.068z" class="cls-5" transform="translate(-137.758 -192.442)"/>
            </g>
        </g>
    </g>
</svg>
